<?xml version='1.0' encoding='utf-8'?>
<svg xmlns="http://www.w3.org/2000/svg" version="1.1" id="Layer_1" x="0px" y="0px" viewBox="0 0 2618.04 1201.084" enable-background="new 0 0 2618.04 1201.084"> <g> <g> <g> <polygon fill="#999999" stroke="#000000" stroke-width="0.9614" points="518.171,139.942 472.824,118.627 468.608,68.698 513.956,90.013 "/> <polygon fill="#CCCCCC" stroke="#000000" stroke-width="0.9614" points="559.303,111.326 518.171,139.942 513.956,90.013 555.088,61.397 "/> <polygon fill="#666666" stroke="#000000" stroke-width="0.9614" points="513.956,90.012 468.608,68.698 509.74,40.084 555.088,61.397 "/> </g> <g> <polygon fill="#999999" stroke="#000000" stroke-width="0.9614" points="611.135,133.877 567.76,108.79 567.798,58.683 611.173,83.77 "/> <polygon fill="#CCCCCC" stroke="#000000" stroke-width="0.9614" points="654.547,108.856 611.135,133.877 611.173,83.77 654.585,58.749 "/> <polygon fill="#666666" stroke="#000000" stroke-width="0.9614" points="611.173,83.77 567.798,58.683 611.21,33.663 654.585,58.749 "/> </g> <g> <polygon fill="#999999" stroke="#000000" stroke-width="0.9614" points="708.431,133.937 665.049,108.862 665.072,58.756 708.454,83.83 "/> <polygon fill="#CCCCCC" stroke="#000000" stroke-width="0.9614" points="751.836,108.903 708.431,133.937 708.454,83.83 751.859,58.796 "/> <polygon fill="#666666" stroke="#000000" stroke-width="0.9614" points="708.454,83.829 665.072,58.756 708.477,33.723 751.859,58.796 "/> </g> <g> <polygon fill="#999999" stroke="#000000" stroke-width="0.9614" points="805.819,133.968 762.429,108.906 762.438,58.8 805.827,83.861 "/> <polygon fill="#CCCCCC" stroke="#000000" stroke-width="0.9614" points="849.216,108.921 805.819,133.968 805.827,83.861 849.224,58.815 "/> <polygon fill="#666666" stroke="#000000" stroke-width="0.9614" points="805.827,83.86 762.438,58.8 805.835,33.754 849.224,58.815 "/> </g> <g> <polygon fill="#999999" stroke="#000000" stroke-width="0.9614" points="903.137,133.97 859.74,108.921 859.734,58.815 903.13,83.864 "/> <polygon fill="#CCCCCC" stroke="#000000" stroke-width="0.9614" points="946.526,108.911 903.137,133.97 903.13,83.864 946.52,58.804 "/> <polygon fill="#666666" stroke="#000000" stroke-width="0.9614" points="903.13,83.863 859.734,58.815 903.123,33.756 946.52,58.804 "/> </g> <g> <polygon fill="#999999" stroke="#000000" stroke-width="0.9614" points="1000.612,133.943 957.208,108.908 957.186,58.801 1000.591,83.837 "/> <polygon fill="#CCCCCC" stroke="#000000" stroke-width="0.9614" points="1043.994,108.871 1000.612,133.943 1000.591,83.837 1043.973,58.765 "/> <polygon fill="#666666" stroke="#000000" stroke-width="0.9614" points="1000.591,83.836 957.186,58.801 1000.569,33.73 1043.973,58.765 "/> </g> <g> <polygon fill="#999999" stroke="#000000" stroke-width="0.9614" points="1098.027,133.888 1054.618,108.86 1054.588,58.754 1097.997,83.782 "/> <polygon fill="#CCCCCC" stroke="#000000" stroke-width="0.9614" points="1141.405,108.808 1098.027,133.888 1097.997,83.782 1141.375,58.702 "/> <polygon fill="#666666" stroke="#000000" stroke-width="0.9614" points="1097.997,83.781 1054.588,58.754 1097.966,33.675 1141.375,58.702 "/> </g> <g> <polygon fill="#999999" stroke="#000000" stroke-width="0.9614" points="1188.319,137.601 1148.787,106.813 1155.684,57.183 1195.216,87.972 "/> <polygon fill="#CCCCCC" stroke="#000000" stroke-width="0.9614" points="1234.747,118.759 1188.319,137.601 1195.216,87.972 1241.645,69.129 "/> <polygon fill="#666666" stroke="#000000" stroke-width="0.9614" points="1195.216,87.971 1155.684,57.183 1202.112,38.341 1241.645,69.129 "/> </g> <g> <polygon fill="#999999" stroke="#000000" stroke-width="0.9614" points="1272.796,158.456 1240.438,120.197 1257.391,73.046 1289.749,111.304 "/> <polygon fill="#CCCCCC" stroke="#000000" stroke-width="0.9614" points="1322.106,149.561 1272.796,158.456 1289.749,111.304 1339.059,102.409 "/> <polygon fill="#666666" stroke="#000000" stroke-width="0.9614" points="1289.749,111.304 1257.391,73.046 1306.701,64.152 1339.059,102.409 "/> </g> <g> <polygon fill="#999999" stroke="#000000" stroke-width="0.9614" points="1352.184,196.005 1327.747,152.26 1353.412,109.226 1377.849,152.97 "/> <polygon fill="#CCCCCC" stroke="#000000" stroke-width="0.9614" points="1402.286,196.712 1352.184,196.005 1377.849,152.97 1427.95,153.678 "/> <polygon fill="#666666" stroke="#000000" stroke-width="0.9614" points="1377.849,152.969 1353.412,109.226 1403.513,109.934 1427.95,153.678 "/> </g> <g> <polygon fill="#999999" stroke="#000000" stroke-width="0.9614" points="1423.593,247.904 1407.469,200.462 1440.491,162.777 1456.616,210.218 "/> <polygon fill="#CCCCCC" stroke="#000000" stroke-width="0.9614" points="1472.741,257.658 1423.593,247.904 1456.616,210.218 1505.763,219.973 "/> <polygon fill="#666666" stroke="#000000" stroke-width="0.9614" points="1456.616,210.218 1440.491,162.777 1489.638,172.532 1505.763,219.973 "/> </g> <g> <polygon fill="#999999" stroke="#000000" stroke-width="0.9614" points="1484.691,311.805 1477.237,262.256 1516.419,231.025 1523.874,280.574 "/> <polygon fill="#CCCCCC" stroke="#000000" stroke-width="0.9614" points="1531.33,330.122 1484.691,311.805 1523.874,280.574 1570.512,298.891 "/> <polygon fill="#666666" stroke="#000000" stroke-width="0.9614" points="1523.875,280.574 1516.419,231.025 1563.057,249.342 1570.512,298.891 "/> </g> <g> <polygon fill="#999999" stroke="#000000" stroke-width="0.9614" points="1533.304,385.519 1534.997,335.44 1579.211,311.867 1577.519,361.945 "/> <polygon fill="#CCCCCC" stroke="#000000" stroke-width="0.9614" points="1575.827,412.022 1533.304,385.519 1577.519,361.945 1620.042,388.449 "/> <polygon fill="#666666" stroke="#000000" stroke-width="0.9614" points="1577.519,361.945 1579.211,311.867 1621.734,338.37 1620.042,388.449 "/> </g> <g> <polygon fill="#999999" stroke="#000000" stroke-width="0.9614" points="1567.01,466.422 1578.356,417.617 1626.295,403.039 1614.949,451.845 "/> <polygon fill="#CCCCCC" stroke="#000000" stroke-width="0.9614" points="1603.604,500.65 1567.01,466.422 1614.949,451.845 1651.543,486.072 "/> <polygon fill="#666666" stroke="#000000" stroke-width="0.9614" points="1614.95,451.845 1626.295,403.039 1662.889,437.267 1651.543,486.072 "/> </g> <g> <polygon fill="#999999" stroke="#000000" stroke-width="0.9614" points="1583.47,547.208 1608.795,503.972 1658.9,504.285 1633.576,547.521 "/> <polygon fill="#CCCCCC" stroke="#000000" stroke-width="0.9614" points="1608.253,590.757 1583.47,547.208 1633.576,547.521 1658.358,591.07 "/> <polygon fill="#666666" stroke="#000000" stroke-width="0.9614" points="1633.577,547.521 1658.9,504.285 1683.682,547.833 1658.358,591.07 "/> </g> <g> <polygon fill="#999999" stroke="#000000" stroke-width="0.9614" points="1581.497,628.882 1619.067,595.727 1666.564,611.685 1628.994,644.84 "/> <polygon fill="#CCCCCC" stroke="#000000" stroke-width="0.9614" points="1591.427,677.995 1581.497,628.882 1628.994,644.84 1638.924,693.953 "/> <polygon fill="#666666" stroke="#000000" stroke-width="0.9614" points="1628.995,644.84 1666.564,611.685 1676.493,660.798 1638.924,693.953 "/> </g> <g> <polygon fill="#999999" stroke="#000000" stroke-width="0.9614" points="1541.448,672.611 1591.464,675.634 1613.853,720.46 1563.838,717.437 "/> <polygon fill="#CCCCCC" stroke="#000000" stroke-width="0.9614" points="1513.823,714.415 1541.448,672.611 1563.838,717.437 1536.213,759.241 "/> <polygon fill="#666666" stroke="#000000" stroke-width="0.9614" points="1563.838,717.438 1613.853,720.46 1586.229,762.263 1536.213,759.241 "/> </g> <g> <polygon fill="#999999" stroke="#000000" stroke-width="0.9614" points="1490.844,683.846 1516.945,726.619 1492.954,770.609 1466.853,727.836 "/> <polygon fill="#CCCCCC" stroke="#000000" stroke-width="0.9614" points="1440.753,685.065 1490.844,683.846 1466.853,727.836 1416.762,729.055 "/> <polygon fill="#666666" stroke="#000000" stroke-width="0.9614" points="1466.853,727.837 1492.954,770.609 1442.863,771.827 1416.762,729.055 "/> </g> <g> <polygon fill="#999999" stroke="#000000" stroke-width="0.9614" points="1434.937,644.472 1432.499,694.52 1387.938,717.432 1390.376,667.384 "/> <polygon fill="#CCCCCC" stroke="#000000" stroke-width="0.9614" points="1392.814,617.338 1434.937,644.472 1390.376,667.384 1348.253,640.25 "/> <polygon fill="#666666" stroke="#000000" stroke-width="0.9614" points="1390.376,667.384 1387.938,717.432 1345.815,690.297 1348.253,640.25 "/> </g> <g> <polygon fill="#999999" stroke="#000000" stroke-width="0.9614" points="1419.053,560.21 1404.951,608.292 1356.26,620.12 1370.363,572.039 "/> <polygon fill="#CCCCCC" stroke="#000000" stroke-width="0.9614" points="1384.463,523.958 1419.053,560.21 1370.363,572.039 1335.773,535.787 "/> <polygon fill="#666666" stroke="#000000" stroke-width="0.9614" points="1370.362,572.039 1356.26,620.12 1321.672,583.868 1335.773,535.787 "/> </g> <g> <polygon fill="#999999" stroke="#000000" stroke-width="0.9614" points="1385.861,455.351 1384.344,505.435 1340.213,529.164 1341.729,479.08 "/> <polygon fill="#CCCCCC" stroke="#000000" stroke-width="0.9614" points="1343.245,428.997 1385.861,455.351 1341.729,479.08 1299.114,452.725 "/> <polygon fill="#666666" stroke="#000000" stroke-width="0.9614" points="1341.729,479.08 1340.213,529.164 1297.598,502.809 1299.114,452.725 "/> </g> <g> <polygon fill="#999999" stroke="#000000" stroke-width="0.9614" points="1311.064,365.42 1328.943,412.229 1297.345,451.116 1279.467,404.307 "/> <polygon fill="#CCCCCC" stroke="#000000" stroke-width="0.9614" points="1261.588,357.5 1311.064,365.42 1279.467,404.307 1229.99,396.388 "/> <polygon fill="#666666" stroke="#000000" stroke-width="0.9614" points="1279.466,404.308 1297.345,451.116 1247.869,443.196 1229.99,396.388 "/> </g> <g> <polygon fill="#999999" stroke="#000000" stroke-width="0.9614" points="1202.213,308.01 1241.068,339.649 1233.096,389.117 1194.241,357.478 "/> <polygon fill="#CCCCCC" stroke="#000000" stroke-width="0.9614" points="1155.386,325.841 1202.213,308.01 1194.241,357.478 1147.415,375.31 "/> <polygon fill="#666666" stroke="#000000" stroke-width="0.9614" points="1194.241,357.479 1233.096,389.117 1186.27,406.947 1147.415,375.31 "/> </g> <g> <polygon fill="#999999" stroke="#000000" stroke-width="0.9614" points="1097.691,293.225 1141.181,318.113 1141.373,368.219 1097.883,343.331 "/> <polygon fill="#CCCCCC" stroke="#000000" stroke-width="0.9614" points="1054.395,318.445 1097.691,293.225 1097.883,343.331 1054.587,368.551 "/> <polygon fill="#666666" stroke="#000000" stroke-width="0.9614" points="1097.883,343.332 1141.373,368.219 1098.076,393.438 1054.587,368.551 "/> </g> <g> <polygon fill="#999999" stroke="#000000" stroke-width="0.9614" points="1000.592,293.356 1043.969,318.439 1043.935,368.545 1000.559,343.462 "/> <polygon fill="#CCCCCC" stroke="#000000" stroke-width="0.9614" points="957.183,318.38 1000.592,293.356 1000.559,343.462 957.149,368.487 "/> <polygon fill="#666666" stroke="#000000" stroke-width="0.9614" points="1000.559,343.463 1043.935,368.545 1000.526,393.569 957.149,368.487 "/> </g> <g> <polygon fill="#999999" stroke="#000000" stroke-width="0.9614" points="903.292,293.191 946.63,318.341 946.519,368.447 903.181,343.297 "/> <polygon fill="#CCCCCC" stroke="#000000" stroke-width="0.9614" points="859.844,318.149 903.292,293.191 903.181,343.297 859.733,368.255 "/> <polygon fill="#666666" stroke="#000000" stroke-width="0.9614" points="903.181,343.298 946.519,368.447 903.071,393.404 859.733,368.255 "/> </g> <g> <polygon fill="#999999" stroke="#000000" stroke-width="0.9614" points="805.899,293.02 849.273,318.108 849.233,368.215 805.859,343.126 "/> <polygon fill="#CCCCCC" stroke="#000000" stroke-width="0.9614" points="762.486,318.039 805.899,293.02 805.859,343.126 762.446,368.145 "/> <polygon fill="#666666" stroke="#000000" stroke-width="0.9614" points="805.859,343.127 849.233,368.215 805.82,393.233 762.446,368.145 "/> </g> <g> <polygon fill="#999999" stroke="#000000" stroke-width="0.9614" points="708.347,293.13 751.83,318.029 752.01,368.135 708.526,343.236 "/> <polygon fill="#CCCCCC" stroke="#000000" stroke-width="0.9614" points="665.044,318.34 708.347,293.13 708.526,343.236 665.224,368.446 "/> <polygon fill="#666666" stroke="#000000" stroke-width="0.9614" points="708.526,343.237 752.01,368.135 708.707,393.343 665.224,368.446 "/> </g> <g> <polygon fill="#999999" stroke="#000000" stroke-width="0.9614" points="610.55,293.815 654.253,318.325 654.879,368.428 611.176,343.917 "/> <polygon fill="#CCCCCC" stroke="#000000" stroke-width="0.9614" points="567.473,319.409 610.55,293.815 611.176,343.917 568.099,369.511 "/> <polygon fill="#666666" stroke="#000000" stroke-width="0.9614" points="611.176,343.918 654.879,368.428 611.802,394.021 568.099,369.511 "/> </g> <g> <polygon fill="#999999" stroke="#000000" stroke-width="0.9614" points="497.78,311.237 547.118,319.979 564.217,367.078 514.878,358.336 "/> <polygon fill="#CCCCCC" stroke="#000000" stroke-width="0.9614" points="465.541,349.594 497.78,311.237 514.878,358.336 482.639,396.693 "/> <polygon fill="#666666" stroke="#000000" stroke-width="0.9614" points="514.878,358.336 564.217,367.078 531.978,405.435 482.639,396.693 "/> </g> <g> <polygon fill="#999999" stroke="#000000" stroke-width="0.9614" points="398.216,370.38 447.364,360.625 480.386,398.31 431.238,408.066 "/> <polygon fill="#CCCCCC" stroke="#000000" stroke-width="0.9614" points="382.091,417.821 398.216,370.38 431.238,408.066 415.114,455.507 "/> <polygon fill="#666666" stroke="#000000" stroke-width="0.9614" points="431.238,408.066 480.386,398.31 464.261,445.751 415.114,455.507 "/> </g> <g> <polygon fill="#999999" stroke="#000000" stroke-width="0.9614" points="326.334,460.422 368.926,434.029 413.079,457.718 370.487,484.111 "/> <polygon fill="#CCCCCC" stroke="#000000" stroke-width="0.9614" points="327.896,510.504 326.334,460.422 370.487,484.111 372.049,534.193 "/> <polygon fill="#666666" stroke="#000000" stroke-width="0.9614" points="370.487,484.111 413.079,457.718 414.641,507.8 372.049,534.193 "/> </g> <g> <polygon fill="#999999" stroke="#000000" stroke-width="0.9614" points="291.886,579.285 315.08,534.869 365.142,532.748 341.947,577.163 "/> <polygon fill="#CCCCCC" stroke="#000000" stroke-width="0.9614" points="318.754,621.578 291.886,579.285 341.947,577.163 368.815,619.457 "/> <polygon fill="#666666" stroke="#000000" stroke-width="0.9614" points="341.948,577.163 365.142,532.748 392.009,575.041 368.815,619.457 "/> </g> <g> <polygon fill="#999999" stroke="#000000" stroke-width="0.9614" points="304.012,688.125 315.841,639.434 363.921,625.331 352.093,674.023 "/> <polygon fill="#CCCCCC" stroke="#000000" stroke-width="0.9614" points="340.266,722.712 304.012,688.125 352.093,674.023 388.347,708.61 "/> <polygon fill="#666666" stroke="#000000" stroke-width="0.9614" points="352.094,674.022 363.921,625.331 400.175,659.919 388.347,708.61 "/> </g> <g> <polygon fill="#999999" stroke="#000000" stroke-width="0.9614" points="358.51,791.529 350.736,742.029 389.716,710.546 397.49,760.046 "/> <polygon fill="#CCCCCC" stroke="#000000" stroke-width="0.9614" points="405.265,809.545 358.51,791.529 397.49,760.046 444.246,778.063 "/> <polygon fill="#666666" stroke="#000000" stroke-width="0.9614" points="397.491,760.046 389.716,710.546 436.471,728.563 444.246,778.063 "/> </g> <g> <polygon fill="#999999" stroke="#000000" stroke-width="0.9614" points="446.393,866.753 421.332,823.363 446.377,779.965 471.438,823.355 "/> <polygon fill="#CCCCCC" stroke="#000000" stroke-width="0.9614" points="496.499,866.743 446.393,866.753 471.438,823.355 521.544,823.345 "/> <polygon fill="#666666" stroke="#000000" stroke-width="0.9614" points="471.438,823.354 446.377,779.965 496.483,779.956 521.544,823.345 "/> </g> <g> <polygon fill="#999999" stroke="#000000" stroke-width="0.9614" points="559.019,904.932 518.04,876.098 522.521,826.192 563.5,855.026 "/> <polygon fill="#CCCCCC" stroke="#000000" stroke-width="0.9614" points="604.479,883.859 559.019,904.932 563.5,855.026 608.96,833.953 "/> <polygon fill="#666666" stroke="#000000" stroke-width="0.9614" points="563.5,855.026 522.521,826.192 567.98,805.12 608.96,833.953 "/> </g> <g> <polygon fill="#999999" stroke="#000000" stroke-width="0.9614" points="660.344,908.926 617.178,883.48 617.631,833.376 660.797,858.821 "/> <polygon fill="#CCCCCC" stroke="#000000" stroke-width="0.9614" points="703.961,884.265 660.344,908.926 660.797,858.821 704.414,834.161 "/> <polygon fill="#666666" stroke="#000000" stroke-width="0.9614" points="660.797,858.821 617.631,833.376 661.249,808.716 704.414,834.161 "/> </g> <g> <polygon fill="#999999" stroke="#000000" stroke-width="0.9614" points="758.584,908.726 715.006,883.994 714.635,833.889 758.213,858.621 "/> <polygon fill="#CCCCCC" stroke="#000000" stroke-width="0.9614" points="801.791,883.351 758.584,908.726 758.213,858.621 801.42,833.246 "/> <polygon fill="#666666" stroke="#000000" stroke-width="0.9614" points="758.213,858.62 714.635,833.889 757.842,808.515 801.42,833.246 "/> </g> <g> <polygon fill="#999999" stroke="#000000" stroke-width="0.9614" points="855.108,908.613 812.001,883.068 812.57,832.965 855.676,858.51 "/> <polygon fill="#CCCCCC" stroke="#000000" stroke-width="0.9614" points="898.782,884.053 855.108,908.613 855.676,858.51 899.351,833.95 "/> <polygon fill="#666666" stroke="#000000" stroke-width="0.9614" points="855.676,858.509 812.57,832.965 856.244,808.406 899.351,833.95 "/> </g> <g> <polygon fill="#999999" stroke="#000000" stroke-width="0.9614" points="912.947,929.76 898.052,881.917 932.036,845.097 946.931,892.939 "/> <polygon fill="#CCCCCC" stroke="#000000" stroke-width="0.9614" points="961.826,940.779 912.947,929.76 946.931,892.939 995.81,903.959 "/> <polygon fill="#666666" stroke="#000000" stroke-width="0.9614" points="946.931,892.938 932.036,845.097 980.915,856.118 995.81,903.959 "/> </g> <g> <polygon fill="#999999" stroke="#000000" stroke-width="0.9614" points="938.309,981.1 963.45,937.757 1013.557,937.858 988.415,981.201 "/> <polygon fill="#CCCCCC" stroke="#000000" stroke-width="0.9614" points="963.275,1024.543 938.309,981.1 988.415,981.201 1013.382,1024.644 "/> <polygon fill="#666666" stroke="#000000" stroke-width="0.9614" points="988.416,981.201 1013.557,937.858 1038.522,981.301 1013.382,1024.644 "/> </g> <g> <polygon fill="#999999" stroke="#000000" stroke-width="0.9614" points="919.105,1040.999 966.345,1024.292 1004.433,1056.849 957.193,1073.556 "/> <polygon fill="#CCCCCC" stroke="#000000" stroke-width="0.9614" points="909.955,1090.263 919.105,1040.999 957.193,1073.556 948.043,1122.819 "/> <polygon fill="#666666" stroke="#000000" stroke-width="0.9614" points="957.194,1073.556 1004.433,1056.849 995.283,1106.112 948.043,1122.819 "/> </g> <g> <polygon fill="#999999" stroke="#000000" stroke-width="0.9614" points="870.29,1067.845 913.737,1092.807 913.844,1142.913 870.397,1117.952 "/> <polygon fill="#CCCCCC" stroke="#000000" stroke-width="0.9614" points="826.951,1092.992 870.29,1067.845 870.397,1117.952 827.058,1143.098 "/> <polygon fill="#666666" stroke="#000000" stroke-width="0.9614" points="870.397,1117.953 913.844,1142.913 870.505,1168.059 827.058,1143.098 "/> </g> <g> <polygon fill="#999999" stroke="#000000" stroke-width="0.9614" points="772.995,1067.828 816.374,1092.908 816.344,1143.014 772.965,1117.935 "/> <polygon fill="#CCCCCC" stroke="#000000" stroke-width="0.9614" points="729.587,1092.857 772.995,1067.828 772.965,1117.935 729.557,1142.963 "/> <polygon fill="#666666" stroke="#000000" stroke-width="0.9614" points="772.965,1117.936 816.344,1143.014 772.936,1168.042 729.557,1142.963 "/> </g> <g> <polygon fill="#999999" stroke="#000000" stroke-width="0.9614" points="675.619,1067.797 719.042,1092.8 719.101,1142.906 675.678,1117.904 "/> <polygon fill="#CCCCCC" stroke="#000000" stroke-width="0.9614" points="632.256,1092.903 675.619,1067.797 675.678,1117.904 632.315,1143.009 "/> <polygon fill="#666666" stroke="#000000" stroke-width="0.9614" points="675.678,1117.905 719.101,1142.906 675.738,1168.011 632.315,1143.009 "/> </g> <g> <polygon fill="#999999" stroke="#000000" stroke-width="0.9614" points="579.071,1068.154 622.046,1093.919 621.221,1144.019 578.245,1118.253 "/> <polygon fill="#CCCCCC" stroke="#000000" stroke-width="0.9614" points="535.271,1092.49 579.071,1068.154 578.245,1118.253 534.446,1142.589 "/> <polygon fill="#666666" stroke="#000000" stroke-width="0.9614" points="578.245,1118.254 621.221,1144.019 577.421,1168.354 534.446,1142.589 "/> </g> <g> <polygon fill="#999999" stroke="#000000" stroke-width="0.9614" points="492.744,1057.688 529.512,1091.729 518.417,1140.592 481.648,1106.55 "/> <polygon fill="#CCCCCC" stroke="#000000" stroke-width="0.9614" points="444.88,1072.511 492.744,1057.688 481.648,1106.55 433.784,1121.374 "/> <polygon fill="#666666" stroke="#000000" stroke-width="0.9614" points="481.648,1106.551 518.417,1140.592 470.553,1155.414 433.784,1121.374 "/> </g> <g> <polygon fill="#999999" stroke="#000000" stroke-width="0.9614" points="409.43,1030.02 438.957,1070.502 418.663,1116.315 389.135,1075.832 "/> <polygon fill="#CCCCCC" stroke="#000000" stroke-width="0.9614" points="359.608,1035.352 409.43,1030.02 389.135,1075.832 339.314,1081.164 "/> <polygon fill="#666666" stroke="#000000" stroke-width="0.9614" points="389.135,1075.833 418.663,1116.315 368.842,1121.646 339.314,1081.164 "/> </g> <g> <polygon fill="#999999" stroke="#000000" stroke-width="0.9614" points="332.456,986.992 353.999,1032.231 325.593,1073.508 304.05,1028.268 "/> <polygon fill="#CCCCCC" stroke="#000000" stroke-width="0.9614" points="282.507,983.03 332.456,986.992 304.05,1028.268 254.1,1024.307 "/> <polygon fill="#666666" stroke="#000000" stroke-width="0.9614" points="304.049,1028.269 325.593,1073.508 275.644,1069.546 254.1,1024.307 "/> </g> <g> <polygon fill="#999999" stroke="#000000" stroke-width="0.9614" points="264.77,930.602 277.599,979.039 242.067,1014.368 229.238,965.931 "/> <polygon fill="#CCCCCC" stroke="#000000" stroke-width="0.9614" points="216.408,917.496 264.77,930.602 229.238,965.931 180.876,952.825 "/> <polygon fill="#666666" stroke="#000000" stroke-width="0.9614" points="229.237,965.932 242.067,1014.368 193.706,1001.261 180.876,952.825 "/> </g> <g> <polygon fill="#999999" stroke="#000000" stroke-width="0.9614" points="209.161,862.893 212.393,912.896 170.705,940.696 167.474,890.693 "/> <polygon fill="#CCCCCC" stroke="#000000" stroke-width="0.9614" points="164.242,840.692 209.161,862.893 167.474,890.693 122.555,868.492 "/> <polygon fill="#666666" stroke="#000000" stroke-width="0.9614" points="167.473,890.694 170.705,940.696 125.787,918.494 122.555,868.492 "/> </g> <g> <polygon fill="#999999" stroke="#000000" stroke-width="0.9614" points="166.624,785.625 160.644,835.374 114.571,855.07 120.551,805.321 "/> <polygon fill="#CCCCCC" stroke="#000000" stroke-width="0.9614" points="126.53,755.574 166.624,785.625 120.551,805.321 80.457,775.269 "/> <polygon fill="#666666" stroke="#000000" stroke-width="0.9614" points="120.55,805.321 114.571,855.07 74.478,825.018 80.457,775.269 "/> </g> <g> <polygon fill="#999999" stroke="#000000" stroke-width="0.9614" points="139.88,701.828 124.621,749.555 75.66,760.205 90.918,712.478 "/> <polygon fill="#CCCCCC" stroke="#000000" stroke-width="0.9614" points="106.175,664.752 139.88,701.828 90.918,712.478 57.214,675.401 "/> <polygon fill="#666666" stroke="#000000" stroke-width="0.9614" points="90.917,712.478 75.66,760.205 41.956,723.129 57.214,675.401 "/> </g> <g> <polygon fill="#999999" stroke="#000000" stroke-width="0.9614" points="129.195,614.38 105.369,658.46 55.282,659.867 79.108,615.787 "/> <polygon fill="#CCCCCC" stroke="#000000" stroke-width="0.9614" points="102.932,571.708 129.195,614.38 79.108,615.787 52.846,573.115 "/> <polygon fill="#666666" stroke="#000000" stroke-width="0.9614" points="79.107,615.787 55.282,659.867 29.021,617.195 52.846,573.115 "/> </g> <g> <polygon fill="#999999" stroke="#000000" stroke-width="0.9614" points="134.284,529.996 100.023,566.559 51.228,555.171 85.489,518.607 "/> <polygon fill="#CCCCCC" stroke="#000000" stroke-width="0.9614" points="119.748,482.044 134.284,529.996 85.489,518.607 70.953,470.656 "/> <polygon fill="#666666" stroke="#000000" stroke-width="0.9614" points="85.488,518.607 51.228,555.171 36.693,507.22 70.953,470.656 "/> </g> <g> <polygon fill="#999999" stroke="#000000" stroke-width="0.9614" points="157.083,441.103 118.965,473.626 71.741,456.877 109.859,424.354 "/> <polygon fill="#CCCCCC" stroke="#000000" stroke-width="0.9614" points="147.975,391.832 157.083,441.103 109.859,424.354 100.751,375.083 "/> <polygon fill="#666666" stroke="#000000" stroke-width="0.9614" points="109.858,424.354 71.741,456.877 62.634,407.606 100.751,375.083 "/> </g> <g> <polygon fill="#999999" stroke="#000000" stroke-width="0.9614" points="194.367,362.102 150.568,386.44 107.591,360.679 151.39,336.341 "/> <polygon fill="#CCCCCC" stroke="#000000" stroke-width="0.9614" points="195.187,312.002 194.367,362.102 151.39,336.341 152.21,286.241 "/> <polygon fill="#666666" stroke="#000000" stroke-width="0.9614" points="151.389,336.34 107.591,360.679 108.412,310.58 152.21,286.241 "/> </g> <g> <polygon fill="#999999" stroke="#000000" stroke-width="0.9614" points="246.499,291.247 198.917,306.953 161.524,273.601 209.106,257.894 "/> <polygon fill="#CCCCCC" stroke="#000000" stroke-width="0.9614" points="256.686,242.187 246.499,291.247 209.106,257.894 219.293,208.834 "/> <polygon fill="#666666" stroke="#000000" stroke-width="0.9614" points="209.105,257.893 161.524,273.601 171.712,224.541 219.293,208.834 "/> </g> <g> <polygon fill="#999999" stroke="#000000" stroke-width="0.9614" points="310.936,231.063 261.289,237.834 230.602,198.224 280.249,191.453 "/> <polygon fill="#CCCCCC" stroke="#000000" stroke-width="0.9614" points="329.895,184.682 310.936,231.063 280.249,191.453 299.208,145.072 "/> <polygon fill="#666666" stroke="#000000" stroke-width="0.9614" points="280.249,191.453 230.602,198.224 249.561,151.843 299.208,145.072 "/> </g> <g> <polygon fill="#999999" stroke="#000000" stroke-width="0.9614" points="385.281,183.691 335.238,181.164 312.404,136.563 362.448,139.09 "/> <polygon fill="#CCCCCC" stroke="#000000" stroke-width="0.9614" points="412.489,141.615 385.281,183.691 362.448,139.09 389.656,97.014 "/> <polygon fill="#666666" stroke="#000000" stroke-width="0.9614" points="362.447,139.089 312.404,136.563 339.613,94.488 389.656,97.014 "/> </g> <g> <polygon fill="#999999" stroke="#000000" stroke-width="0.9614" points="466.753,151.4 418.149,139.219 404.395,91.038 452.999,103.218 "/> <polygon fill="#CCCCCC" stroke="#000000" stroke-width="0.9614" points="501.602,115.398 466.753,151.4 452.999,103.218 487.848,67.216 "/> <polygon fill="#666666" stroke="#000000" stroke-width="0.9614" points="452.999,103.218 404.395,91.038 439.245,55.036 487.848,67.216 "/> </g> </g> <g> <g> <polygon fill="#999999" stroke="#000000" stroke-width="0.9614" points="1728.353,139.674 1681.615,121.61 1673.889,72.103 1720.627,90.167 "/> <polygon fill="#CCCCCC" stroke="#000000" stroke-width="0.9614" points="1767.364,108.229 1728.353,139.674 1720.627,90.167 1759.638,58.721 "/> <polygon fill="#666666" stroke="#000000" stroke-width="0.9614" points="1720.627,90.166 1673.889,72.103 1712.9,40.659 1759.638,58.721 "/> </g> <g> <polygon fill="#999999" stroke="#000000" stroke-width="0.9614" points="1818.518,132.935 1774.786,108.476 1774.101,58.375 1817.833,82.833 "/> <polygon fill="#CCCCCC" stroke="#000000" stroke-width="0.9614" points="1861.564,107.29 1818.518,132.935 1817.833,82.833 1860.879,57.189 "/> <polygon fill="#666666" stroke="#000000" stroke-width="0.9614" points="1817.833,82.832 1774.101,58.375 1817.147,32.731 1860.879,57.189 "/> </g> <g> <polygon fill="#999999" stroke="#000000" stroke-width="0.9614" points="1915.254,134.107 1871.783,109.186 1871.63,59.08 1915.1,84.001 "/> <polygon fill="#CCCCCC" stroke="#000000" stroke-width="0.9614" points="1958.57,108.921 1915.254,134.107 1915.1,84.001 1958.417,58.815 "/> <polygon fill="#666666" stroke="#000000" stroke-width="0.9614" points="1915.1,84 1871.63,59.08 1914.946,33.894 1958.417,58.815 "/> </g> <g> <polygon fill="#999999" stroke="#000000" stroke-width="0.9614" points="2014.44,133.56 1970.069,110.279 1968.046,60.214 2012.416,83.495 "/> <polygon fill="#CCCCCC" stroke="#000000" stroke-width="0.9614" points="2056.785,106.774 2014.44,133.56 2012.416,83.495 2054.762,56.709 "/> <polygon fill="#666666" stroke="#000000" stroke-width="0.9614" points="2012.416,83.494 1968.046,60.214 2010.391,33.429 2054.762,56.709 "/> </g> <g> <polygon fill="#999999" stroke="#000000" stroke-width="0.9614" points="2101.316,139.117 2062.699,107.188 2071.041,57.781 2109.658,89.71 "/> <polygon fill="#CCCCCC" stroke="#000000" stroke-width="0.9614" points="2148.275,121.637 2101.316,139.117 2109.658,89.71 2156.616,72.23 "/> <polygon fill="#666666" stroke="#000000" stroke-width="0.9614" points="2109.658,89.709 2071.041,57.781 2117.999,40.302 2156.616,72.23 "/> </g> <g> <polygon fill="#999999" stroke="#000000" stroke-width="0.9614" points="2185.931,162.081 2154.219,123.285 2171.961,76.425 2203.672,115.221 "/> <polygon fill="#CCCCCC" stroke="#000000" stroke-width="0.9614" points="2235.384,154.015 2185.931,162.081 2203.672,115.221 2253.125,107.154 "/> <polygon fill="#666666" stroke="#000000" stroke-width="0.9614" points="2203.673,115.22 2171.961,76.425 2221.413,68.359 2253.125,107.154 "/> </g> <g> <polygon fill="#999999" stroke="#000000" stroke-width="0.9614" points="2265.07,200.734 2241.033,156.769 2267.089,113.97 2291.126,157.935 "/> <polygon fill="#CCCCCC" stroke="#000000" stroke-width="0.9614" points="2315.163,201.898 2265.07,200.734 2291.126,157.935 2341.219,159.099 "/> <polygon fill="#666666" stroke="#000000" stroke-width="0.9614" points="2291.126,157.934 2267.089,113.97 2317.181,115.135 2341.219,159.099 "/> </g> <g> <polygon fill="#999999" stroke="#000000" stroke-width="0.9614" points="2336.076,253.294 2320.4,205.702 2353.777,168.331 2369.453,215.923 "/> <polygon fill="#CCCCCC" stroke="#000000" stroke-width="0.9614" points="2385.129,263.513 2336.076,253.294 2369.453,215.923 2418.506,226.141 "/> <polygon fill="#666666" stroke="#000000" stroke-width="0.9614" points="2369.454,215.922 2353.777,168.331 2402.83,178.55 2418.506,226.141 "/> </g> <g> <polygon fill="#999999" stroke="#000000" stroke-width="0.9614" points="2396.079,317.691 2389.482,268.02 2429.199,237.471 2435.796,287.142 "/> <polygon fill="#CCCCCC" stroke="#000000" stroke-width="0.9614" points="2442.394,336.812 2396.079,317.691 2435.796,287.142 2482.111,306.263 "/> <polygon fill="#666666" stroke="#000000" stroke-width="0.9614" points="2435.797,287.142 2429.199,237.471 2475.513,256.593 2482.111,306.263 "/> </g> <g> <polygon fill="#999999" stroke="#000000" stroke-width="0.9614" points="2441.613,389.936 2447.081,340.128 2492.95,319.96 2487.481,369.768 "/> <polygon fill="#CCCCCC" stroke="#000000" stroke-width="0.9614" points="2482.013,419.574 2441.613,389.936 2487.481,369.768 2527.881,399.406 "/> <polygon fill="#666666" stroke="#000000" stroke-width="0.9614" points="2487.481,369.767 2492.95,319.96 2533.35,349.599 2527.881,399.406 "/> </g> <g> <polygon fill="#999999" stroke="#000000" stroke-width="0.9614" points="2474.968,473.876 2487.385,425.331 2535.633,411.812 2523.216,460.356 "/> <polygon fill="#CCCCCC" stroke="#000000" stroke-width="0.9614" points="2510.801,508.899 2474.968,473.876 2523.216,460.356 2559.049,495.38 "/> <polygon fill="#666666" stroke="#000000" stroke-width="0.9614" points="2523.217,460.356 2535.633,411.812 2571.465,446.835 2559.049,495.38 "/> </g> <g> <polygon fill="#999999" stroke="#000000" stroke-width="0.9614" points="2489.016,559.679 2511.216,514.758 2561.217,511.522 2539.018,556.443 "/> <polygon fill="#CCCCCC" stroke="#000000" stroke-width="0.9614" points="2516.821,601.363 2489.016,559.679 2539.018,556.443 2566.822,598.128 "/> <polygon fill="#666666" stroke="#000000" stroke-width="0.9614" points="2539.019,556.443 2561.217,511.522 2589.021,553.206 2566.822,598.128 "/> </g> <g> <polygon fill="#999999" stroke="#000000" stroke-width="0.9614" points="2488.21,649.344 2517.03,608.355 2566.938,612.82 2538.117,653.808 "/> <polygon fill="#CCCCCC" stroke="#000000" stroke-width="0.9614" points="2509.298,694.797 2488.21,649.344 2538.117,653.808 2559.205,699.261 "/> <polygon fill="#666666" stroke="#000000" stroke-width="0.9614" points="2538.118,653.809 2566.938,612.82 2588.025,658.272 2559.205,699.261 "/> </g> <g> <polygon fill="#999999" stroke="#000000" stroke-width="0.9614" points="2472.973,735.352 2509.359,700.903 2557.385,715.189 2520.999,749.638 "/> <polygon fill="#CCCCCC" stroke="#000000" stroke-width="0.9614" points="2484.615,784.087 2472.973,735.352 2520.999,749.638 2532.642,798.373 "/> <polygon fill="#666666" stroke="#000000" stroke-width="0.9614" points="2521,749.638 2557.385,715.189 2569.027,763.924 2532.642,798.373 "/> </g> <g> <polygon fill="#999999" stroke="#000000" stroke-width="0.9614" points="2439.846,816.308 2482.289,789.675 2526.575,813.115 2484.131,839.748 "/> <polygon fill="#CCCCCC" stroke="#000000" stroke-width="0.9614" points="2441.69,866.38 2439.846,816.308 2484.131,839.748 2485.976,889.82 "/> <polygon fill="#666666" stroke="#000000" stroke-width="0.9614" points="2484.132,839.748 2526.575,813.115 2528.418,863.187 2485.976,889.82 "/> </g> <g> <polygon fill="#999999" stroke="#000000" stroke-width="0.9614" points="2391.614,889.934 2438.252,871.614 2477.436,902.844 2430.798,921.163 "/> <polygon fill="#CCCCCC" stroke="#000000" stroke-width="0.9614" points="2384.162,939.483 2391.614,889.934 2430.798,921.163 2423.345,970.712 "/> <polygon fill="#666666" stroke="#000000" stroke-width="0.9614" points="2430.799,921.163 2477.436,902.844 2469.983,952.392 2423.345,970.712 "/> </g> <g> <polygon fill="#999999" stroke="#000000" stroke-width="0.9614" points="2330.622,953.772 2379.791,944.12 2412.733,981.876 2363.564,991.527 "/> <polygon fill="#CCCCCC" stroke="#000000" stroke-width="0.9614" points="2314.397,1001.178 2330.622,953.772 2363.564,991.527 2347.34,1038.933 "/> <polygon fill="#666666" stroke="#000000" stroke-width="0.9614" points="2363.565,991.527 2412.733,981.876 2396.508,1029.282 2347.34,1038.933 "/> </g> <g> <polygon fill="#999999" stroke="#000000" stroke-width="0.9614" points="2259.205,1005.571 2309.309,1004.994 2334.86,1048.096 2284.756,1048.673 "/> <polygon fill="#CCCCCC" stroke="#000000" stroke-width="0.9614" points="2234.654,1049.251 2259.205,1005.571 2284.756,1048.673 2260.206,1092.353 "/> <polygon fill="#666666" stroke="#000000" stroke-width="0.9614" points="2284.757,1048.673 2334.86,1048.096 2310.309,1091.775 2260.206,1092.353 "/> </g> <g> <polygon fill="#999999" stroke="#000000" stroke-width="0.9614" points="2179.815,1043.079 2229.115,1052.035 2246.01,1099.207 2196.709,1090.251 "/> <polygon fill="#CCCCCC" stroke="#000000" stroke-width="0.9614" points="2147.41,1081.297 2179.815,1043.079 2196.709,1090.251 2164.305,1128.469 "/> <polygon fill="#666666" stroke="#000000" stroke-width="0.9614" points="2196.71,1090.252 2246.01,1099.207 2213.605,1137.424 2164.305,1128.469 "/> </g> <g> <polygon fill="#999999" stroke="#000000" stroke-width="0.9614" points="2097.91,1063.81 2143.274,1085.089 2147.53,1135.014 2102.165,1113.736 "/> <polygon fill="#CCCCCC" stroke="#000000" stroke-width="0.9614" points="2056.801,1092.459 2097.91,1063.81 2102.165,1113.736 2061.056,1142.384 "/> <polygon fill="#666666" stroke="#000000" stroke-width="0.9614" points="2102.165,1113.737 2147.53,1135.014 2106.421,1163.662 2061.056,1142.384 "/> </g> <g> <polygon fill="#999999" stroke="#000000" stroke-width="0.9614" points="2004.924,1067.775 2048.282,1092.89 2048.212,1142.996 2004.854,1117.881 "/> <polygon fill="#CCCCCC" stroke="#000000" stroke-width="0.9614" points="1961.496,1092.768 2004.924,1067.775 2004.854,1117.881 1961.426,1142.875 "/> <polygon fill="#666666" stroke="#000000" stroke-width="0.9614" points="2004.854,1117.882 2048.212,1142.996 2004.785,1167.988 1961.426,1142.875 "/> </g> <g> <polygon fill="#999999" stroke="#000000" stroke-width="0.9614" points="1907.457,1067.707 1950.848,1092.766 1950.842,1142.872 1907.451,1117.813 "/> <polygon fill="#CCCCCC" stroke="#000000" stroke-width="0.9614" points="1864.061,1092.756 1907.457,1067.707 1907.451,1117.813 1864.055,1142.862 "/> <polygon fill="#666666" stroke="#000000" stroke-width="0.9614" points="1907.451,1117.814 1950.842,1142.872 1907.446,1167.92 1864.055,1142.862 "/> </g> <g> <polygon fill="#999999" stroke="#000000" stroke-width="0.9614" points="1810.058,1067.727 1853.463,1092.763 1853.483,1142.869 1810.079,1117.833 "/> <polygon fill="#CCCCCC" stroke="#000000" stroke-width="0.9614" points="1766.676,1092.799 1810.058,1067.727 1810.079,1117.833 1766.697,1142.905 "/> <polygon fill="#666666" stroke="#000000" stroke-width="0.9614" points="1810.079,1117.834 1853.483,1142.869 1810.101,1167.941 1766.697,1142.905 "/> </g> <g> <polygon fill="#999999" stroke="#000000" stroke-width="0.9614" points="1712.757,1067.763 1756.156,1092.808 1756.166,1142.915 1712.767,1117.869 "/> <polygon fill="#CCCCCC" stroke="#000000" stroke-width="0.9614" points="1669.369,1092.825 1712.757,1067.763 1712.767,1117.869 1669.379,1142.932 "/> <polygon fill="#666666" stroke="#000000" stroke-width="0.9614" points="1712.767,1117.87 1756.166,1142.915 1712.778,1167.976 1669.379,1142.932 "/> </g> <g> <polygon fill="#999999" stroke="#000000" stroke-width="0.9614" points="1615.482,1067.741 1658.856,1092.828 1658.818,1142.935 1615.443,1117.847 "/> <polygon fill="#CCCCCC" stroke="#000000" stroke-width="0.9614" points="1572.07,1092.762 1615.482,1067.741 1615.443,1117.847 1572.031,1142.868 "/> <polygon fill="#666666" stroke="#000000" stroke-width="0.9614" points="1615.443,1117.848 1658.818,1142.935 1615.406,1167.955 1572.031,1142.868 "/> </g> <g> <polygon fill="#999999" stroke="#000000" stroke-width="0.9614" points="1518.223,1067.589 1561.52,1092.812 1561.325,1142.917 1518.029,1117.695 "/> <polygon fill="#CCCCCC" stroke="#000000" stroke-width="0.9614" points="1474.734,1092.475 1518.223,1067.589 1518.029,1117.695 1474.539,1142.581 "/> <polygon fill="#666666" stroke="#000000" stroke-width="0.9614" points="1518.029,1117.696 1561.325,1142.917 1517.835,1167.802 1474.539,1142.581 "/> </g> <g> <polygon fill="#999999" stroke="#000000" stroke-width="0.9614" points="1427.99,1063.958 1467.293,1095.04 1460.027,1144.616 1420.725,1113.535 "/> <polygon fill="#CCCCCC" stroke="#000000" stroke-width="0.9614" points="1381.423,1082.455 1427.99,1063.958 1420.725,1113.535 1374.157,1132.032 "/> <polygon fill="#666666" stroke="#000000" stroke-width="0.9614" points="1420.725,1113.536 1460.027,1144.616 1413.46,1163.112 1374.157,1132.032 "/> </g> <g> <polygon fill="#999999" stroke="#000000" stroke-width="0.9614" points="1343.677,1042.505 1375.773,1080.984 1358.498,1128.018 1326.403,1089.54 "/> <polygon fill="#CCCCCC" stroke="#000000" stroke-width="0.9614" points="1294.307,1051.063 1343.677,1042.505 1326.403,1089.54 1277.032,1098.098 "/> <polygon fill="#666666" stroke="#000000" stroke-width="0.9614" points="1326.402,1089.541 1358.498,1128.018 1309.128,1136.575 1277.032,1098.098 "/> </g> <g> <polygon fill="#999999" stroke="#000000" stroke-width="0.9614" points="1264.674,1004.478 1288.813,1048.387 1262.857,1091.247 1238.718,1047.337 "/> <polygon fill="#CCCCCC" stroke="#000000" stroke-width="0.9614" points="1214.579,1003.43 1264.674,1004.478 1238.718,1047.337 1188.622,1046.289 "/> <polygon fill="#666666" stroke="#000000" stroke-width="0.9614" points="1238.717,1047.338 1262.857,1091.247 1212.762,1090.198 1188.622,1046.289 "/> </g> <g> <polygon fill="#999999" stroke="#000000" stroke-width="0.9614" points="1193.595,952.021 1209.35,999.587 1176.035,1037.014 1160.28,989.448 "/> <polygon fill="#CCCCCC" stroke="#000000" stroke-width="0.9614" points="1144.525,941.884 1193.595,952.021 1160.28,989.448 1111.21,979.31 "/> <polygon fill="#666666" stroke="#000000" stroke-width="0.9614" points="1160.28,989.448 1176.035,1037.014 1126.965,1026.875 1111.21,979.31 "/> </g> <g> <polygon fill="#999999" stroke="#000000" stroke-width="0.9614" points="1133.064,887.641 1140.078,937.255 1100.618,968.135 1093.605,918.522 "/> <polygon fill="#CCCCCC" stroke="#000000" stroke-width="0.9614" points="1086.59,868.91 1133.064,887.641 1093.605,918.522 1047.131,899.79 "/> <polygon fill="#666666" stroke="#000000" stroke-width="0.9614" points="1093.604,918.522 1100.618,968.135 1054.146,949.404 1047.131,899.79 "/> </g> <g> <polygon fill="#999999" stroke="#000000" stroke-width="0.9614" points="1085.235,813.609 1083.052,863.669 1038.609,886.808 1040.792,836.748 "/> <polygon fill="#CCCCCC" stroke="#000000" stroke-width="0.9614" points="1042.974,786.69 1085.235,813.609 1040.792,836.748 998.53,809.83 "/> <polygon fill="#666666" stroke="#000000" stroke-width="0.9614" points="1040.791,836.749 1038.609,886.808 996.348,859.889 998.53,809.83 "/> </g> <g> <polygon fill="#999999" stroke="#000000" stroke-width="0.9614" points="1052.376,732.394 1040.516,781.078 992.426,795.148 1004.286,746.465 "/> <polygon fill="#CCCCCC" stroke="#000000" stroke-width="0.9614" points="1016.145,697.783 1052.376,732.394 1004.286,746.465 968.055,711.854 "/> <polygon fill="#666666" stroke="#000000" stroke-width="0.9614" points="1004.285,746.465 992.426,795.148 956.195,760.537 968.055,711.854 "/> </g> <g> <polygon fill="#999999" stroke="#000000" stroke-width="0.9614" points="1036.771,649.397 1012.817,693.408 962.726,694.669 986.68,650.658 "/> <polygon fill="#CCCCCC" stroke="#000000" stroke-width="0.9614" points="1010.633,606.649 1036.771,649.397 986.68,650.658 960.543,607.909 "/> <polygon fill="#666666" stroke="#000000" stroke-width="0.9614" points="986.68,650.658 962.726,694.669 936.589,651.92 960.543,607.909 "/> </g> <g> <polygon fill="#999999" stroke="#000000" stroke-width="0.9614" points="1039.613,571.844 1000.36,602.988 953.763,584.567 993.016,553.423 "/> <polygon fill="#CCCCCC" stroke="#000000" stroke-width="0.9614" points="1032.267,522.28 1039.613,571.844 993.016,553.423 985.67,503.858 "/> <polygon fill="#666666" stroke="#000000" stroke-width="0.9614" points="993.015,553.423 953.763,584.567 946.417,535.002 985.67,503.858 "/> </g> <g> <polygon fill="#999999" stroke="#000000" stroke-width="0.9614" points="1066.987,532.171 1020.541,513.368 1013.602,463.745 1060.047,482.547 "/> <polygon fill="#CCCCCC" stroke="#000000" stroke-width="0.9614" points="1106.492,501.348 1066.987,532.171 1060.047,482.547 1099.552,451.725 "/> <polygon fill="#666666" stroke="#000000" stroke-width="0.9614" points="1060.047,482.546 1013.602,463.745 1053.107,432.923 1099.552,451.725 "/> </g> <g> <polygon fill="#999999" stroke="#000000" stroke-width="0.9614" points="1141.417,523.868 1108.154,486.394 1123.975,438.851 1157.238,476.325 "/> <polygon fill="#CCCCCC" stroke="#000000" stroke-width="0.9614" points="1190.5,513.797 1141.417,523.868 1157.238,476.325 1206.322,466.255 "/> <polygon fill="#666666" stroke="#000000" stroke-width="0.9614" points="1157.238,476.325 1123.975,438.851 1173.058,428.781 1206.322,466.255 "/> </g> <g> <polygon fill="#999999" stroke="#000000" stroke-width="0.9614" points="1183.318,550.5 1197.65,502.486 1246.396,490.891 1232.065,538.905 "/> <polygon fill="#CCCCCC" stroke="#000000" stroke-width="0.9614" points="1217.734,586.917 1183.318,550.5 1232.065,538.905 1266.48,575.322 "/> <polygon fill="#666666" stroke="#000000" stroke-width="0.9614" points="1232.065,538.904 1246.396,490.891 1280.811,527.308 1266.48,575.322 "/> </g> <g> <polygon fill="#999999" stroke="#000000" stroke-width="0.9614" points="1200.135,640.749 1219.63,594.589 1269.351,588.392 1249.857,634.551 "/> <polygon fill="#CCCCCC" stroke="#000000" stroke-width="0.9614" points="1230.363,680.71 1200.135,640.749 1249.857,634.551 1280.085,674.513 "/> <polygon fill="#666666" stroke="#000000" stroke-width="0.9614" points="1249.857,634.551 1269.351,588.392 1299.579,628.353 1280.085,674.513 "/> </g> <g> <polygon fill="#999999" stroke="#000000" stroke-width="0.9614" points="1237.966,751.876 1237.851,701.769 1281.187,676.616 1281.302,726.723 "/> <polygon fill="#CCCCCC" stroke="#000000" stroke-width="0.9614" points="1281.417,776.828 1237.966,751.876 1281.302,726.723 1324.753,751.676 "/> <polygon fill="#666666" stroke="#000000" stroke-width="0.9614" points="1281.302,726.723 1281.187,676.616 1324.638,701.569 1324.753,751.676 "/> </g> <g> <polygon fill="#999999" stroke="#000000" stroke-width="0.9614" points="1313.125,839.586 1295.139,792.818 1326.647,753.858 1344.633,800.626 "/> <polygon fill="#CCCCCC" stroke="#000000" stroke-width="0.9614" points="1362.619,847.392 1313.125,839.586 1344.633,800.626 1394.127,808.432 "/> <polygon fill="#666666" stroke="#000000" stroke-width="0.9614" points="1344.633,800.625 1326.647,753.858 1376.141,761.665 1394.127,808.432 "/> </g> <g> <polygon fill="#999999" stroke="#000000" stroke-width="0.9614" points="1422.475,896.142 1383.609,864.516 1391.565,815.045 1430.431,846.671 "/> <polygon fill="#CCCCCC" stroke="#000000" stroke-width="0.9614" points="1469.295,878.296 1422.475,896.142 1430.431,846.671 1477.251,828.825 "/> <polygon fill="#666666" stroke="#000000" stroke-width="0.9614" points="1430.431,846.67 1391.565,815.045 1438.386,797.2 1477.251,828.825 "/> </g> <g> <polygon fill="#999999" stroke="#000000" stroke-width="0.9614" points="1526.288,907.622 1483.385,881.735 1484.352,831.638 1527.254,857.525 "/> <polygon fill="#CCCCCC" stroke="#000000" stroke-width="0.9614" points="1570.156,883.41 1526.288,907.622 1527.254,857.525 1571.123,833.313 "/> <polygon fill="#666666" stroke="#000000" stroke-width="0.9614" points="1527.254,857.524 1484.352,831.638 1528.22,807.427 1571.123,833.313 "/> </g> <g> <polygon fill="#999999" stroke="#000000" stroke-width="0.9614" points="1624.284,908.792 1581.03,883.499 1581.307,833.393 1624.562,858.687 "/> <polygon fill="#CCCCCC" stroke="#000000" stroke-width="0.9614" points="1667.815,883.979 1624.284,908.792 1624.562,858.687 1668.093,833.873 "/> <polygon fill="#666666" stroke="#000000" stroke-width="0.9614" points="1624.562,858.686 1581.307,833.393 1624.838,808.58 1668.093,833.873 "/> </g> <g> <polygon fill="#999999" stroke="#000000" stroke-width="0.9614" points="1722.078,908.91 1678.63,883.95 1678.522,833.844 1721.97,858.804 "/> <polygon fill="#CCCCCC" stroke="#000000" stroke-width="0.9614" points="1765.417,883.763 1722.078,908.91 1721.97,858.804 1765.309,833.657 "/> <polygon fill="#666666" stroke="#000000" stroke-width="0.9614" points="1721.97,858.803 1678.522,833.844 1721.861,808.697 1765.309,833.657 "/> </g> <g> <polygon fill="#999999" stroke="#000000" stroke-width="0.9614" points="1819.469,908.573 1775.981,883.683 1775.793,833.577 1819.28,858.467 "/> <polygon fill="#CCCCCC" stroke="#000000" stroke-width="0.9614" points="1862.767,883.356 1819.469,908.573 1819.28,858.467 1862.579,833.25 "/> <polygon fill="#666666" stroke="#000000" stroke-width="0.9614" points="1819.28,858.467 1775.793,833.577 1819.091,808.361 1862.579,833.25 "/> </g> <g> <polygon fill="#999999" stroke="#000000" stroke-width="0.9614" points="1916.404,908.373 1873.115,883.137 1873.325,833.031 1916.614,858.267 "/> <polygon fill="#CCCCCC" stroke="#000000" stroke-width="0.9614" points="1959.901,883.5 1916.404,908.373 1916.614,858.267 1960.111,833.395 "/> <polygon fill="#666666" stroke="#000000" stroke-width="0.9614" points="1916.614,858.266 1873.325,833.031 1916.822,808.16 1960.111,833.395 "/> </g> <g> <polygon fill="#999999" stroke="#000000" stroke-width="0.9614" points="2015.875,908.41 1971.569,885.008 1969.682,834.937 2013.988,858.339 "/> <polygon fill="#CCCCCC" stroke="#000000" stroke-width="0.9614" points="2058.294,881.739 2015.875,908.41 2013.988,858.339 2056.407,831.668 "/> <polygon fill="#666666" stroke="#000000" stroke-width="0.9614" points="2013.988,858.338 1969.682,834.937 2012.1,808.267 2056.407,831.668 "/> </g> <g> <polygon fill="#999999" stroke="#000000" stroke-width="0.9614" points="2126.248,888.734 2077.039,879.293 2060.61,831.956 2109.819,841.397 "/> <polygon fill="#CCCCCC" stroke="#000000" stroke-width="0.9614" points="2159.028,850.837 2126.248,888.734 2109.819,841.397 2142.599,803.501 "/> <polygon fill="#666666" stroke="#000000" stroke-width="0.9614" points="2109.819,841.397 2060.61,831.956 2093.389,794.06 2142.599,803.501 "/> </g> <g> <polygon fill="#999999" stroke="#000000" stroke-width="0.9614" points="2225.282,829.313 2175.945,838.061 2143.699,799.709 2193.037,790.96 "/> <polygon fill="#CCCCCC" stroke="#000000" stroke-width="0.9614" points="2242.373,782.211 2225.282,829.313 2193.037,790.96 2210.128,743.859 "/> <polygon fill="#666666" stroke="#000000" stroke-width="0.9614" points="2193.036,790.96 2143.699,799.709 2160.791,752.608 2210.128,743.859 "/> </g> <g> <polygon fill="#999999" stroke="#000000" stroke-width="0.9614" points="2297.587,735.673 2256.162,763.863 2211.037,742.083 2252.462,713.893 "/> <polygon fill="#CCCCCC" stroke="#000000" stroke-width="0.9614" points="2293.885,685.703 2297.587,735.673 2252.462,713.893 2248.76,663.924 "/> <polygon fill="#666666" stroke="#000000" stroke-width="0.9614" points="2252.461,713.893 2211.037,742.083 2207.335,692.114 2248.76,663.924 "/> </g> <g> <polygon fill="#999999" stroke="#000000" stroke-width="0.9614" points="2327.496,623.503 2299.302,664.926 2249.333,661.221 2277.527,619.799 "/> <polygon fill="#CCCCCC" stroke="#000000" stroke-width="0.9614" points="2305.719,578.377 2327.496,623.503 2277.527,619.799 2255.75,574.672 "/> <polygon fill="#666666" stroke="#000000" stroke-width="0.9614" points="2277.526,619.798 2249.333,661.221 2227.557,616.094 2255.75,574.672 "/> </g> <g> <polygon fill="#999999" stroke="#000000" stroke-width="0.9614" points="2311.834,501.576 2307.899,551.528 2262.673,573.097 2266.607,523.145 "/> <polygon fill="#CCCCCC" stroke="#000000" stroke-width="0.9614" points="2270.541,473.194 2311.834,501.576 2266.607,523.145 2225.314,494.763 "/> <polygon fill="#666666" stroke="#000000" stroke-width="0.9614" points="2266.606,523.145 2262.673,573.097 2221.38,544.715 2225.314,494.763 "/> </g> <g> <polygon fill="#999999" stroke="#000000" stroke-width="0.9614" points="2258.522,405.944 2266.725,455.375 2228.02,487.195 2219.816,437.764 "/> <polygon fill="#CCCCCC" stroke="#000000" stroke-width="0.9614" points="2211.612,388.335 2258.522,405.944 2219.816,437.764 2172.906,420.155 "/> <polygon fill="#666666" stroke="#000000" stroke-width="0.9614" points="2219.815,437.765 2228.02,487.195 2181.11,469.585 2172.906,420.155 "/> </g> <g> <polygon fill="#999999" stroke="#000000" stroke-width="0.9614" points="2167.685,332.213 2194.213,374.722 2170.664,418.95 2144.136,376.441 "/> <polygon fill="#CCCCCC" stroke="#000000" stroke-width="0.9614" points="2117.608,333.935 2167.685,332.213 2144.136,376.441 2094.059,378.163 "/> <polygon fill="#666666" stroke="#000000" stroke-width="0.9614" points="2144.136,376.442 2170.664,418.95 2120.588,420.67 2094.059,378.163 "/> </g> <g> <polygon fill="#999999" stroke="#000000" stroke-width="0.9614" points="2054.966,296.261 2096.599,324.143 2093.27,374.138 2051.637,346.257 "/> <polygon fill="#CCCCCC" stroke="#000000" stroke-width="0.9614" points="2010.004,318.377 2054.966,296.261 2051.637,346.257 2006.675,368.372 "/> <polygon fill="#666666" stroke="#000000" stroke-width="0.9614" points="2051.637,346.258 2093.27,374.138 2048.309,396.253 2006.675,368.372 "/> </g> <g> <polygon fill="#999999" stroke="#000000" stroke-width="0.9614" points="1954.181,293.391 1997.631,318.347 1997.744,368.454 1954.293,343.497 "/> <polygon fill="#CCCCCC" stroke="#000000" stroke-width="0.9614" points="1910.844,318.543 1954.181,293.391 1954.293,343.497 1910.957,368.649 "/> <polygon fill="#666666" stroke="#000000" stroke-width="0.9614" points="1954.294,343.498 1997.744,368.454 1954.407,393.604 1910.957,368.649 "/> </g> <g> <polygon fill="#999999" stroke="#000000" stroke-width="0.9614" points="1856.837,293.452 1900.245,318.482 1900.272,368.588 1856.865,343.558 "/> <polygon fill="#CCCCCC" stroke="#000000" stroke-width="0.9614" points="1813.458,318.529 1856.837,293.452 1856.865,343.558 1813.485,368.636 "/> <polygon fill="#666666" stroke="#000000" stroke-width="0.9614" points="1856.865,343.559 1900.272,368.588 1856.893,393.665 1813.485,368.636 "/> </g> <g> <polygon fill="#999999" stroke="#000000" stroke-width="0.9614" points="1758.19,293.593 1802.193,317.561 1803.438,367.652 1759.435,343.684 "/> <polygon fill="#CCCCCC" stroke="#000000" stroke-width="0.9614" points="1715.433,319.718 1758.19,293.593 1759.435,343.684 1716.679,369.809 "/> <polygon fill="#666666" stroke="#000000" stroke-width="0.9614" points="1759.435,343.685 1803.438,367.652 1760.682,393.776 1716.679,369.809 "/> </g> <g> <polygon fill="#999999" stroke="#000000" stroke-width="0.9614" points="1705.377,270.283 1718.108,318.745 1682.504,354.002 1669.773,305.539 "/> <polygon fill="#CCCCCC" stroke="#000000" stroke-width="0.9614" points="1657.041,257.078 1705.377,270.283 1669.773,305.539 1621.438,292.335 "/> <polygon fill="#666666" stroke="#000000" stroke-width="0.9614" points="1669.772,305.54 1682.504,354.002 1634.169,340.797 1621.438,292.335 "/> </g> <g> <polygon fill="#999999" stroke="#000000" stroke-width="0.9614" points="1681.288,217.892 1654.672,260.346 1604.599,258.523 1631.215,216.07 "/> <polygon fill="#CCCCCC" stroke="#000000" stroke-width="0.9614" points="1657.83,173.617 1681.288,217.892 1631.215,216.07 1607.756,171.794 "/> <polygon fill="#666666" stroke="#000000" stroke-width="0.9614" points="1631.214,216.069 1604.599,258.523 1581.141,214.247 1607.756,171.794 "/> </g> <g> <polygon fill="#999999" stroke="#000000" stroke-width="0.9614" points="1703.019,159.057 1655.178,173.956 1618.355,139.975 1666.196,125.076 "/> <polygon fill="#CCCCCC" stroke="#000000" stroke-width="0.9614" points="1714.034,110.176 1703.019,159.057 1666.196,125.076 1677.211,76.195 "/> <polygon fill="#666666" stroke="#000000" stroke-width="0.9614" points="1666.195,125.075 1618.355,139.975 1629.371,91.095 1677.211,76.195 "/> </g> </g> </g> </svg>